<?xml version="1.0" standalone="no"?>
<!DOCTYPE svg PUBLIC "-//W3C//DTD SVG 20010904//EN"
 "http://www.w3.org/TR/2001/REC-SVG-20010904/DTD/svg10.dtd">
<svg version="1.0" xmlns="http://www.w3.org/2000/svg"
 width="100.000000pt" height="100.000000pt" viewBox="0 0 100.000000 100.000000"
 preserveAspectRatio="xMidYMid meet">
<metadata>
Created by potrace 1.11, written by Peter Selinger 2001-2013
</metadata>
<g transform="translate(0.000000,100.000000) scale(0.100000,-0.100000)"
fill="#000000" stroke="none">
<path d="M625 989 c5 -7 4 -10 -3 -5 -6 3 -23 1 -39 -6 -15 -6 -32 -10 -38 -9
-5 2 -7 0 -4 -4 4 -3 -7 -20 -22 -36 -16 -17 -27 -35 -24 -39 3 -5 1 -11 -3
-14 -11 -6 -6 -117 5 -125 4 -3 10 -15 11 -26 2 -11 15 -35 30 -54 14 -19 19
-31 11 -27 -10 5 -10 4 1 -6 9 -7 24 -30 34 -51 9 -21 24 -41 31 -43 8 -3 11
-12 8 -20 -3 -8 0 -14 6 -14 6 0 11 -6 11 -14 0 -8 5 -18 12 -22 8 -5 9 -2 5
10 -4 9 -3 15 2 12 5 -4 22 15 37 41 15 27 31 51 36 54 6 3 9 10 9 15 -1 5 5
16 13 26 8 9 12 18 10 21 -2 2 2 10 11 17 8 7 15 18 15 25 0 7 9 23 19 37 19
23 24 55 22 131 -1 23 -5 36 -11 32 -5 -3 -10 -1 -10 4 0 21 -3 26 -34 53 -17
14 -34 24 -38 22 -4 -3 -8 -1 -8 3 0 5 -8 9 -17 10 -10 1 -35 5 -57 8 -29 5
-37 4 -31 -6z m106 -74 c22 -13 46 -65 43 -92 -1 -13 -2 -30 -3 -39 0 -8 -17
-30 -37 -49 -29 -28 -42 -33 -76 -32 -26 1 -48 9 -63 23 -13 12 -26 20 -29 17
-6 -6 -31 78 -26 92 1 6 3 16 3 23 0 6 5 12 10 12 6 0 8 3 4 6 -6 6 22 40 32
38 3 0 12 6 20 13 7 8 20 12 27 9 7 -3 16 -1 19 4 5 8 41 -3 76 -25z"/>
<path d="M10 760 c-11 -7 -11 -10 -2 -10 7 0 10 -4 7 -10 -3 -5 0 -10 7 -10 8
0 9 -3 3 -8 -11 -8 -15 -453 -4 -446 4 2 10 -3 13 -12 4 -9 13 -14 21 -10 8 3
15 1 15 -4 0 -8 26 -20 43 -20 4 1 14 -5 22 -12 33 -30 41 -34 53 -30 6 2 12
0 12 -5 0 -11 59 -37 67 -29 11 11 9 386 -2 386 -7 0 -7 3 0 8 6 4 10 28 10
53 0 42 -3 49 -34 69 -18 12 -30 16 -25 9 4 -7 -6 -3 -23 9 -17 12 -36 22 -41
22 -6 0 -12 4 -14 9 -1 5 -12 11 -23 13 -11 1 -22 5 -25 8 -9 9 -49 30 -57 30
-5 0 -15 -5 -23 -10z"/>
<path d="M430 720 c0 -5 -3 -9 -7 -8 -14 4 -53 -13 -49 -21 3 -4 -5 -8 -17 -8
-12 -1 -23 -7 -25 -13 -2 -5 -10 -10 -18 -10 -17 0 -15 21 -17 -272 -1 -161 1
-238 9 -238 16 0 64 24 64 33 0 4 6 7 13 7 24 0 88 36 80 45 -4 4 -3 5 4 2 6
-4 29 2 50 14 l39 21 -1 79 c-1 50 3 79 9 79 6 0 4 5 -4 10 -13 8 -13 10 2 10
11 0 16 -7 15 -20 -1 -11 -6 -20 -12 -20 -5 0 -3 -5 5 -10 8 -5 10 -10 5 -10
-6 0 -8 -22 -5 -57 l5 -58 60 -31 c33 -17 63 -30 66 -28 3 2 15 -3 25 -11 10
-8 27 -15 37 -15 10 0 15 -4 12 -10 -3 -5 1 -10 10 -10 9 0 28 -8 42 -17 15
-10 24 -12 20 -5 -5 6 -5 12 0 12 4 0 8 52 9 115 0 72 -3 112 -9 108 -6 -4 -7
-1 -1 8 13 21 13 240 0 232 -6 -4 -5 1 3 10 12 15 10 18 -10 26 -18 6 -27 4
-36 -8 -6 -9 -9 -19 -7 -23 3 -5 0 -8 -6 -8 -6 0 -15 -10 -20 -22 -16 -36 -51
-92 -62 -99 -5 -3 -8 -9 -6 -12 1 -3 -7 -17 -19 -30 -12 -14 -19 -28 -16 -31
4 -3 -1 -6 -10 -6 -8 0 -19 9 -22 20 -3 11 -11 20 -16 20 -5 0 -9 5 -9 11 0 6
-6 17 -14 24 -12 12 -15 12 -20 -1 -3 -9 -4 -20 0 -25 3 -5 1 -9 -5 -9 -17 0
-24 22 -10 31 8 5 9 9 3 9 -6 0 -10 16 -9 35 0 19 -3 35 -7 35 -4 0 -10 11
-14 25 -3 14 -10 25 -15 25 -5 0 -9 9 -9 20 0 11 -5 20 -11 20 -5 0 -7 5 -4
10 3 6 1 10 -4 10 -6 0 -10 3 -9 8 0 4 -2 15 -6 25 -9 18 -46 24 -46 7z"/>
</g>
</svg>
